<?xml version="1.0" standalone="no"?><!DOCTYPE svg PUBLIC "-//W3C//DTD SVG 1.1//EN" "http://www.w3.org/Graphics/SVG/1.1/DTD/svg11.dtd"><svg t="1514782311755" class="icon" style="" viewBox="0 0 1024 1024" version="1.1" xmlns="http://www.w3.org/2000/svg" p-id="1376" xmlns:xlink="http://www.w3.org/1999/xlink" width="16" height="16"><defs><style type="text/css"></style></defs><path d="M180.864 396.48c-10.944-1.92-21.76-3.392-32.384-5.696a88.32 88.32 0 0 1-38.144-18.048c-17.536-14.528-24.64-34.048-26.624-56-2.048-21.376 3.52-41.28 12.992-60.096A197.952 197.952 0 0 1 167.04 178.368c33.344-21.184 68.032-22.4 102.208-3.2 31.104 17.344 52.032 44.032 62.592 78.272 1.664 5.12 1.792 10.688 2.688 16.192 9.088-3.648 17.984-7.424 26.944-10.816A400.64 400.64 0 0 1 460.8 235.968c2.624-0.256 3.648-1.216 4.288-3.776 5.824-24.512 11.712-48.96 17.856-73.344 0.896-3.392 0.064-4.864-2.816-6.528a47.36 47.36 0 0 1-22.464-48.896 47.552 47.552 0 1 1 70.656 49.28l-3.072 1.92 8.64 34.88c3.2 12.864 6.784 25.664 9.472 38.656 1.152 5.248 3.584 6.464 8.384 6.848 38.72 2.816 76.288 10.88 112.704 24.576 7.296 2.688 14.464 5.76 21.76 8.704 1.024-5.504 1.472-10.816 2.88-15.872 7.68-26.688 24.064-47.488 44.544-65.28 14.592-12.672 31.68-20.48 50.88-23.552 23.104-3.712 44.992 0.128 64.896 12.416 40 24.704 68.736 58.688 83.584 103.616 6.464 19.392 5.888 39.168 0 58.688-8.64 28.416-29.312 44.032-56.96 51.456-10.688 2.88-21.696 4.416-32.704 6.592 0.064 0.128 0.192 0.704 0.576 1.152 40 54.336 67.712 114.688 87.68 178.816 7.872 25.088 14.784 50.368 17.28 76.672 6.272 67.072-13.184 125.376-59.712 174.272-36.864 38.592-82.24 63.872-131.456 82.752a614.144 614.144 0 0 1-138.944 34.048c-39.616 5.312-79.424 7.552-119.296 6.784-81.344-1.408-161.024-12.928-237.312-42.624-41.728-16.192-80.32-37.568-113.664-67.904-34.432-31.296-58.624-68.864-68.992-114.688a228.864 228.864 0 0 1 0.96-104.128c19.136-80.384 50.176-155.712 99.136-222.848l1.28-2.176z m330.944 526.848a743.68 743.68 0 0 0 128.384-10.56 534.4 534.4 0 0 0 137.28-41.344c36.416-17.088 69.696-38.656 96.64-68.992 38.976-43.968 53.568-95.36 46.4-153.344a360.96 360.96 0 0 0-14.464-61.504c-19.648-63.424-46.592-123.264-86.784-176.576-43.328-57.408-97.408-100.736-165.312-125.76-69.44-25.6-141.12-30.144-213.824-18.432-84.096 13.696-154.624 52.672-211.648 115.84-41.344 45.76-71.04 98.56-93.056 155.776-14.464 37.568-27.712 75.648-32.256 116.096-3.648 32.512 0.128 64 12.8 94.208 16.064 38.592 43.392 67.968 77.12 91.84 38.208 27.008 80.768 44.672 125.504 57.408 63.104 17.984 127.744 25.216 193.216 25.344z" p-id="1377"></path><path d="M502.784 493.376c35.008 0.64 70.016 0.64 105.088 2.112 47.936 2.048 95.808 4.992 143.744 7.872 17.728 1.088 35.648 2.176 53.184 4.864 32.96 5.184 58.624 35.648 59.264 68.608 0.64 36.032-23.04 66.816-56.896 74.112-9.92 2.176-19.84 1.664-29.824 0.96-37.952-2.752-75.84-5.568-113.728-7.808a2248.32 2248.32 0 0 0-77.76-2.816c-26.304-0.64-52.544-1.28-78.848-0.896-47.36 0.704-94.72 1.344-142.08 3.52-42.432 1.856-84.8 5.312-127.168 8.768-35.072 2.816-70.464-24.384-76.16-59.456-6.784-41.856 18.624-78.464 60.224-85.44 15.168-2.496 30.72-3.2 46.208-4.16 34.304-2.304 68.608-4.544 102.976-6.336 23.104-1.216 46.272-1.984 69.376-2.432 20.8-0.384 41.536-0.064 62.4-0.064v-1.408z m9.536 101.76h278.272c7.744 0 14.4-5.12 15.68-12.096a15.616 15.616 0 0 0-10.688-18.048 26.88 26.88 0 0 0-7.872-1.024h-554.24c-8.64 0.256-16.064 7.552-16.064 15.68 0 8.448 7.616 15.488 16.64 15.488h278.272zM525.952 806.848l36.416-9.856c3.456-0.96 6.72-2.304 10.304-3.264a13.056 13.056 0 0 1 16.512 8.448c2.624 7.232-0.576 15.36-7.616 17.92-38.144 14.144-76.8 21.44-116.672 6.976-6.464-2.368-13.184-4.032-19.712-6.144-8.384-2.688-12.48-10.368-9.792-18.432 2.56-7.808 9.408-10.752 18.176-8.32 13.312 3.776 26.752 7.36 40.128 10.944 1.472 0.448 3.008 0.512 5.056 0.832v-17.728c0-10.176-0.192-20.288 0.128-30.464 0.128-3.776-1.216-5.76-4.352-7.232a644.864 644.864 0 0 1-18.88-9.28c-13.504-6.912-15.744-19.392-5.312-30.592 10.24-11.008 23.424-15.168 37.952-15.808 16.96-0.832 32.832 2.304 45.312 14.976a29.76 29.76 0 0 1 6.4 10.688c2.88 8 0.896 13.824-6.4 18.112a245.76 245.76 0 0 1-21.696 10.944c-4.352 2.048-6.08 4.672-5.952 9.728 0.384 13.696 0.128 27.52 0.128 41.28-0.128 1.728-0.128 3.456-0.128 6.272z" p-id="1378"></path></svg>